<?xml version="1.0" encoding="UTF-8"?>
<!-- Created with Inkscape (http://www.inkscape.org/) -->
<svg width="512" height="512" version="1.1" viewBox="0 0 135.47 135.47" xmlns="http://www.w3.org/2000/svg" xmlns:xlink="http://www.w3.org/1999/xlink">
 <defs>
  <linearGradient id="linearGradient27542" x1="24.685" x2="83.622" y1="62.326" y2="20.163" gradientUnits="userSpaceOnUse">
   <stop stop-color="#ffc107" offset="0"/>
   <stop stop-color="#0f0f27" offset="1"/>
  </linearGradient>
  <linearGradient id="linearGradient29509" x1="325.62" x2="191.9" y1="413.14" y2="188.35" gradientTransform="matrix(.26458 0 0 .26458 .20582 -.2622)" gradientUnits="userSpaceOnUse">
   <stop stop-color="#333" offset="0"/>
   <stop stop-color="#333" stop-opacity="0" offset="1"/>
  </linearGradient>
  <linearGradient id="linearGradient33145" x1="66.266" x2="52.333" y1="21.259" y2="110.23" gradientUnits="userSpaceOnUse">
   <stop stop-color="#ffc107" offset="0"/>
   <stop stop-color="#0f0f27" offset="1"/>
  </linearGradient>
 </defs>
 <g>
  <path d="m69.841 7.7399c-0.28214-0.01409-0.52486 0.04232-0.72864 0.16898-1.0596 0.65862-1.8934 1.6099-2.5016 2.8541-0.66471 1.171-0.77177 2.0494-0.3204 2.635 0.33853 0.43916 1.1346 1.0809 2.3885 1.9255 2.6519 2.0326 4.4702 3.609 5.4544 4.7294 3.4582 3.351 6.3776 6.352 8.7762 9.015 1.825-1.7898 3.4018-3.2406 4.732-4.361-1.3897-1.6471-2.7308-3.1652-4.0189-4.5434-2.6957-2.8715-6.0623-6.3004-10.1-10.287-1.0094-0.99657-1.9152-1.6241-2.7177-1.8831-0.3605-0.15485-0.68214-0.23964-0.96428-0.25373zm17.8 16.967c1.0607 1.2571 2.158 2.675 3.2778 4.0887 3.8076-7.394 2.8872-9.2812-3.2778-4.0887zm0 0c-0.53486 0.09707-3.3713 2.1019-4.732 4.361 9.4912 11.164 19.612 27.451 22.791 36.159 3.3096 8.9856 1.6632 15.53-4.9392 19.634-5.4613 3.3944-11.847 5.1987-19.157 5.4121-7.3106 0.21339-16.599-0.88812-27.866-3.3042-1.0472-0.24684-2.139-0.52064-3.2556-0.80874-1.3197 1.8547-2.6924 3.2591-3.7511 4.6363 1.5606 0.37029 3.3473 0.85884 4.9184 1.2052 12.953 2.8835 23.552 4.1993 31.797 3.9465 8.2448-0.25273 15.546-2.3554 21.904-6.3071 7.9881-4.965 10.409-12.694 7.2626-23.189-3.09-10.421-9.7694-22.292-20.038-35.613-0.56196-0.72901-4.3857-5.4404-4.9335-6.1319zm-37.16 61.453c-4.6122-1.0944-8.8711-2.6032-13.391-3.9067-8.7115 11.64-16.944 23.453-16.944 25.199 0 2.0471 1.05 3.6121 3.1497 4.6958 2.0997 1.0436 5.1564 1.5658 9.1705 1.5658 0.55579 0 1.8402-0.0204 2.4577-0.0605 6.8252-0.55016 30.101-3.5879 33.803-7.6791l-33.157 2.187c1.6922-3.6695 2.7719-4.5877 4.9558-8.2987 1.631-2.9287 7.1684-10.076 9.956-13.702zm-16.813 0.75342c1.1932-1.5944 2.0658-2.8801 3.4225-4.6602-0.64054-0.20465-1.2805-0.4095-1.9363-0.62322-7.0282-2.2356-12.129-4.3163-15.301-6.242l-6.7143-3.7838c-3.8122 1.9364-5.9632 3.0565-6.4523 3.3605-0.73352 0.45597-1.1096 0.90658-1.1286 1.3513-0.10036 0.49542 0.10354 1.0724 0.61133 1.7312 0.67706 0.87831 1.4291 1.3851 2.2567 1.5203 0.74609 0.18584 1.6523 0.10982 2.7182-0.22789 4.0563 2.134 12.772 4.6773 20.296 6.9298 1.5741 0.48297 0.64244 0.18666 2.2279 0.64389zm3.4225-4.6602c4.9131 1.5697 9.0831 3.2755 13.099 4.3115 0.0807-0.11343 0.44414-0.61214 0.52593-0.72776 17.61-22.284 29.565-40.357 36.264-51.48-0.20899-0.27357 0.1736-0.22904-0.0385-0.50424-1.1148-1.4461-2.4648-3.0454-4.0318-4.7852-8.8489 8.678-23.565 25.381-44.792 51.832-0.36508 0.47702-0.67286 0.88901-1.0268 1.3534z" fill="url(#linearGradient29509)" opacity=".75" stroke-width="3.8236" style="white-space:pre"/>
  <path d="m45.167 87.88c-4.9404 6.9842-7.9013 9.916-10.19 14.025-2.1839 3.711-3.2634 4.6296-4.9556 8.2991l33.157-2.1873c-3.7021 4.0912-26.977 7.1293-33.802 7.6795-0.61754 0.0401-1.902 0.0601-2.4578 0.0601-4.0141 0-7.071-0.5218-9.1706-1.5654-2.0997-1.0837-3.1495-2.6492-3.1495-4.6963 0-2.0471 5.9902-10.898 17.971-26.552 73.425-91.497 69.103-66.566 12.598 4.9372z" fill="url(#linearGradient33145)" stroke="#000" stroke-width=".52917" style="white-space:pre"/>
  <path d="m110.73 92.927c-6.3579 3.9517-14.109 3.9851-22.354 4.2378-8.2448 0.25274-19.066-2.2256-28.648-5.7452-7.2291-2.7666-17.39-8.0181-24.165-10.857-6.4595-2.7659-12.704-5.0337-17.46-6.8497-1.0659 0.33772-1.3917 0.60127-2.1378 0.41543-0.8276-0.13518-1.7149-0.95676-2.3919-1.8351-0.50779-0.65874-0.57658-0.92099-0.47622-1.4164 0.01898-0.44476 0.26024-1.21 0.99376-1.6659 0.48907-0.30398 2.1309-0.91533 5.9431-2.8517l7.3693 3.5448c3.4585 1.703 8.7849 3.9905 14.623 6.9352 5.2248 2.3057 15.545 7.2906 20.277 9.1133 11.15 3.2847 17.549 5.7508 24.86 5.5374 7.3106-0.21339 13.517 0.05158 18.978-3.3428 6.6025-4.1037 8.2489-10.648 4.9393-19.634-3.2532-8.9124-9.5063-19.37-18.759-31.374-2.821-3.6597-7.0903-8.2596-12.808-13.8-0.98425-1.1204-2.8023-2.6969-5.4543-4.7295-1.2539-0.84458-2.0501-1.4864-2.3886-1.9256-0.45137-0.58554-0.3447-1.4638 0.32-2.6348 0.60828-1.2442 1.4423-2.1956 2.5019-2.8542 0.40756-0.25332 0.97184-0.22512 1.6928 0.08457 0.80251 0.25902 1.7084 0.88684 2.7178 1.8834 4.0374 3.9863 7.4039 7.4151 10.1 10.287 2.7522 2.9447 5.7362 6.503 8.9522 10.675 10.269 13.321 16.948 25.192 20.038 35.614 3.1464 10.494 0.72559 18.224-7.2625 23.189z" fill="url(#linearGradient27542)" stroke="#000" stroke-width=".52917"/>
 </g>
 <g fill="#0f0f27">
  <path d="m95.438 107.2c-1.8971 0-3.4353 1.5382-3.4353 3.4353 0 1.8972 1.5382 3.4353 3.4353 3.4353 1.8971 0 3.4353-1.5382 3.4353-3.4353 0-1.8971-1.5382-3.4353-3.4353-3.4353zm0 6.5341c-1.7113 0-3.0988-1.3874-3.0988-3.0988 0-1.7113 1.3874-3.0988 3.0988-3.0988s3.0988 1.3874 3.0988 3.0988c0 1.7114-1.3874 3.0988-3.0988 3.0988zm1.8719-2.9656 0.0012-0.0638h1.147c0.0013-0.0232 0.0029-0.0462 0.0029-0.0694 0-0.0231-0.0011-0.0463-0.0029-0.0694h-1.147l-0.0012-0.0631c-0.0091-0.49566-0.06871-0.9682-0.17737-1.4057l-0.01403-0.0575 0.05609-0.019c0.27412-0.094 0.48165-0.1949 0.62046-0.27201-0.03012-0.0371-0.061-0.0736-0.09254-0.10937-0.16616 0.0911-0.35334 0.17246-0.55806 0.24328l-0.06309 0.0217-0.01965-0.0638c-0.11568-0.37999-0.26501-0.7109-0.44519-0.98502-0.08062-0.0344-0.16335-0.0652-0.24748-0.0926 0.22364 0.28534 0.41294 0.66813 0.55246 1.121l0.01965 0.0638-0.0638 0.0176c-0.39822 0.11007-0.8364 0.17038-1.3033 0.18089l-0.06591 1e-3v-1.5319c-0.02311-1e-3 -0.04557-4e-3 -0.06941-4e-3 -0.02387 0-0.04628 1e-3 -0.06941 4e-3v1.5312l-0.0659-1e-3c-0.46552-0.0105-0.9037-0.0715-1.3026-0.18228l-0.06449-0.0176 0.01965-0.0638c0.14022-0.4529 0.32881-0.83499 0.55246-1.1196-0.08413 0.0272-0.16686 0.0576-0.24748 0.0925-0.18018 0.27342-0.32951 0.60364-0.44519 0.98361l-0.01964 0.0645-0.06309-0.0224c-0.20401-0.0708-0.3912-0.15214-0.55736-0.24328-0.03153 0.0365-0.06309 0.0729-0.09324 0.11076 0.13881 0.0778 0.34634 0.17877 0.62046 0.27202l0.05609 0.019-0.01403 0.0575c-0.10867 0.43679-0.16826 0.91001-0.17808 1.4057l-0.0012 0.0631h-1.1477c-0.0012 0.0232-0.0029 0.0462-0.0029 0.0694s0.0012 0.0469 0.0029 0.0694h1.1463l0.0012 0.0638c0.0091 0.49986 0.07012 0.97732 0.18018 1.4183l0.01475 0.0575-0.05609 0.019c-0.27132 0.0926-0.47744 0.1921-0.61555 0.26922 0.03012 0.0371 0.061 0.0736 0.09254 0.10936 0.16476-0.0897 0.35125-0.17035 0.55386-0.24047l0.06309-0.0217 0.01964 0.0638c0.11497 0.37508 0.26361 0.70249 0.44168 0.9731 0.08062 0.0343 0.16335 0.0652 0.24748 0.0926-0.22154-0.28253-0.40944-0.66043-0.54895-1.1084l-0.02036-0.0638 0.06449-0.0176c0.39681-0.10938 0.83429-0.16968 1.2991-0.17949l0.0659-1e-3v1.5178c0.02311 1e-3 0.04628 4e-3 0.06941 4e-3 0.02317 0 0.04627-1e-3 0.06941-4e-3v-1.5185l0.0659 1e-3c0.46341 0.0105 0.90019 0.0708 1.2984 0.18089l0.0645 0.0176-0.01965 0.0638c-0.13952 0.44728-0.32741 0.82518-0.54825 1.1077 0.08413-0.0274 0.16686-0.0582 0.24749-0.0926 0.17808-0.27062 0.3267-0.59732 0.44168-0.9717l0.01964-0.0638 0.0631 0.0217c0.20191 0.0701 0.3877 0.15074 0.55316 0.23977 0.03222-0.0365 0.0638-0.0729 0.09395-0.11007-0.13882-0.0771-0.34424-0.17667-0.61556-0.26922l-0.05609-0.019 0.01474-0.0575c0.11077-0.44027 0.17177-0.91771 0.18088-1.4176zm-1.9413 1.2297-0.06309 1e-3c-0.48094 9e-3 -0.93174 0.0715-1.3405 0.18369l-0.06381 0.0176-0.01614-0.0638c-0.11007-0.43188-0.17037-0.89179-0.18018-1.3664l-0.0012-0.0659h1.6651zm0-1.4323h-1.6651l0.0012-0.0659c0.0098-0.46973 0.06941-0.92544 0.17667-1.3538l0.01614-0.0638 0.0638 0.0176c0.40943 0.11287 0.86163 0.17527 1.344 0.18507l0.06309 1e-3zm0.13882-1.2802 0.06309-1e-3c0.48165-9e-3 0.93385-0.0715 1.344-0.18509l0.06381-0.0176 0.01614 0.0638c0.10726 0.42835 0.16686 0.88336 0.17667 1.3538l0.0012 0.0659h-1.6651zm1.4835 2.8513-0.01614 0.0638-0.06381-0.0176c-0.40873-0.11217-0.85953-0.17388-1.3405-0.1837l-0.0631-1e-3v-1.2935h1.6651l-0.0012 0.0659c-0.0098 0.47464-0.07012 0.93456-0.18018 1.3664z" stroke-width=".0070109"/>
  <path d="m93.454 105.73c-0.0809 0.0838-0.08685 0.28438-0.02102 0.53875 0.12866 0.49988 0.46994 0.79321 1.0446 0.9039 0.32629 0.0629 0.99075 0.057 1.8168-0.0149 0.38015-0.0359 0.70635-0.0568 0.72137-0.0538 0.01506 6e-3 -0.17065 0.23945-0.41608 0.51784-0.62256 0.71522-1.4786 1.721-2.616 3.0828-1.9186 2.2957-2.4214 2.9183-2.4214 2.9901 0 0.11675 0.11079 0.22748 0.22149 0.22748 0.11972 0 0 0.0928 1.4996-1.1493 2.191-1.8138 4.1334-3.46 5.1032-4.325l0.37418-0.33226 0.05683 0.0659c0.02985 0.0389 0.10483 0.17055 0.16466 0.29331 0.1018 0.21255 0.10776 0.23944 0.10776 0.53875 0 0.28135-0.0094 0.33227-0.08382 0.48193-0.09876 0.20656-0.32628 0.425-0.54474 0.52375-0.08977 0.0419-0.26044 0.0867-0.3891 0.0988-0.27232 0.0329-0.34424 0.0808-0.34424 0.24543 0 0.0869 0.018 0.12571 0.0809 0.17664 0.07483 0.057 0.10483 0.0629 0.2783 0.0449 0.26643-0.0299 0.52079-0.11079 0.73335-0.23944 0.23051-0.14071 0.35318-0.2574 0.49685-0.47291 0.36818-0.56572 0.33826-1.2661-0.08078-1.8827l-0.13776-0.20361 0.11677-0.13169c0.49389-0.55975 0.41304-1.305-0.17057-1.6103-0.11078-0.0568-0.17959-0.0688-0.40411-0.0688-0.24542 0-0.28732 9e-3 -0.47593 0.1018-0.13464 0.0659-0.28439 0.17656-0.43994 0.32326l-0.23345 0.22148-0.35319 0.0149c-0.19459 6e-3 -0.66151 0.0419-1.0416 0.0748-1.1106 0.1018-1.6883 0.0539-1.9726-0.16466-0.15867-0.11972-0.2305-0.26338-0.2724-0.54776-0.0419-0.28439-0.0809-0.33827-0.23944-0.33827-0.05991 9e-5 -0.11674 0.024-0.15859 0.069zm5.3606 0.72129c0.05381 0.021 0.13465 0.0838 0.17958 0.13472 0.06586 0.0779 0.0809 0.12874 0.0809 0.25446 0 0.32325-0.1467 0.50882-1.0176 1.287-0.89194 0.79615-4.4328 3.7922-4.4567 3.7713-0.02102-0.018 2.4783-2.9812 3.3792-4.0048 0.28734-0.32923 0.55366-0.63452 0.59262-0.68241 0.07483-0.0898 0.17959-0.10775 0.3203-0.0538 0.06586 0.024 0.0718 0.0389 0.04484 0.0868-0.08089 0.15268 0.02697 0.33227 0.20059 0.33227 0.09268 0 0.13768-0.0329 0.36811-0.25742 0.26642-0.26034 0.31127-0.33522 0.26338-0.46092-0.05683-0.15563-0.22747-0.19459-0.36515-0.0867-0.08078 0.0629-0.08382 0.0629-0.20648 9e-3 -0.06876-0.0299-0.13169-0.0568-0.13768-0.0629-0.02088-0.0151 0.1257-0.12866 0.2514-0.19459 0.22444-0.11972 0.35015-0.13768 0.50276-0.0718z" stroke-width=".00084311"/>
  <circle cx="86.353" cy="110.64" r="3.1383"/>
  <circle cx="104.52" cy="110.64" r="3.1383"/>
 </g>
 <path transform="matrix(.28256 -.016675 .016675 .28256 -6.1971 12.436)" d="m352.42 249.53-49.253-19.756-47.686 8.4121 41.877-31.114 16.417-47.165 4.9509 48.817z" fill="#ffc107" stroke="#3a3ab5" stroke-width="5.7475"/>
</svg>
